<svg xmlns="http://www.w3.org/2000/svg" viewBox="0 0 64 64" role="img" aria-label="Kami"><rect width="64" height="64" rx="14" fill="#ffffff"/><rect x="0.75" y="0.75" width="62.5" height="62.5" rx="13.25" fill="none" stroke="rgba(23, 23, 26, 0.14)" stroke-width="1.5"/><path fill="rgba(23, 23, 26, 1)" d="M9.1 45.75Q9.1 45.75 10.68 45.94Q12.27 46.12 13.34 46.22Q14.4 46.32 15.37 46.39Q16.34 46.46 17.3 46.51Q18.25 46.56 19.2 46.59Q20.15 46.63 21.09 46.64Q22.04 46.66 22.99 46.65Q23.94 46.65 24.89 46.62Q25.84 46.6 26.79 46.57Q27.74 46.54 28.7 46.5Q29.65 46.46 30.61 46.43Q31.57 46.39 32.53 46.36Q33.49 46.33 34.46 46.31Q35.42 46.29 36.38 46.28Q37.35 46.27 38.31 46.28Q39.28 46.28 40.24 46.29Q41.21 46.31 42.17 46.32Q43.13 46.34 44.08 46.36Q45.04 46.37 46 46.38Q46.95 46.39 47.9 46.39Q48.86 46.39 49.81 46.37Q50.75 46.36 52.85 46.28Q54.94 46.2 55.11 46.21Q55.27 46.23 55.42 46.3Q55.57 46.37 55.69 46.48Q55.81 46.59 55.88 46.74Q55.96 46.88 55.99 47.05Q56.01 47.21 55.99 47.37Q55.96 47.53 55.88 47.68Q55.81 47.82 55.69 47.93Q55.57 48.05 55.42 48.12Q55.27 48.19 55.11 48.2Q54.95 48.22 54.79 48.19Q54.63 48.15 54.49 48.07Q54.34 47.98 54.24 47.86Q54.13 47.73 54.07 47.58Q54.01 47.43 54 47.26Q53.99 47.1 54.04 46.94Q54.08 46.78 54.17 46.65Q54.26 46.51 54.39 46.41Q54.52 46.31 54.68 46.26Q54.83 46.21 55 46.21Q55.16 46.21 55.32 46.26Q55.47 46.31 55.6 46.41Q55.74 46.51 55.83 46.65Q55.92 46.78 55.96 46.94Q56.01 47.1 56 47.26Q55.99 47.43 55.93 47.58Q55.87 47.73 55.76 47.86Q55.66 47.98 55.52 48.07Q55.38 48.15 55.22 48.19Q55.06 48.22 55.06 48.22Q55.06 48.22 52.92 48.34Q50.79 48.46 49.83 48.48Q48.86 48.5 47.89 48.5Q46.93 48.5 45.97 48.49Q45.01 48.48 44.05 48.46Q43.09 48.44 42.13 48.43Q41.18 48.41 40.22 48.39Q39.27 48.38 38.32 48.38Q37.37 48.37 36.41 48.38Q35.46 48.39 34.51 48.41Q33.56 48.42 32.6 48.45Q31.65 48.48 30.69 48.52Q29.73 48.55 28.77 48.59Q27.81 48.62 26.84 48.66Q25.88 48.69 24.91 48.7Q23.94 48.72 22.98 48.72Q22.01 48.72 21.04 48.71Q20.07 48.69 19.1 48.65Q18.13 48.61 17.16 48.55Q16.19 48.49 15.21 48.41Q14.23 48.33 13.16 48.25Q12.09 48.17 10.5 48.07Q8.9 47.98 8.77 47.95Q8.64 47.93 8.52 47.87Q8.39 47.81 8.29 47.72Q8.19 47.64 8.11 47.53Q8.03 47.42 7.97 47.3Q7.92 47.17 7.9 47.04Q7.88 46.9 7.89 46.77Q7.9 46.63 7.95 46.51Q7.99 46.38 8.06 46.27Q8.14 46.15 8.23 46.06Q8.33 45.97 8.45 45.9Q8.57 45.83 8.7 45.8Q8.83 45.76 8.96 45.75Q9.1 45.75 9.1 45.75Z"/><path fill="rgba(23, 23, 26, 1)" d="M9.48 45.81Q9.48 45.81 9.82 42.73Q10.15 39.66 10.59 35.83Q11.03 31.99 10.77 27.85Q10.52 23.71 9.94 18.45Q9.36 13.19 9.37 12.92Q9.38 12.66 9.48 12.41Q9.58 12.16 9.75 11.95Q9.92 11.75 10.15 11.61Q10.38 11.47 10.64 11.41Q10.9 11.35 11.16 11.38Q11.43 11.4 11.67 11.51Q11.92 11.63 12.11 11.81Q12.31 11.99 12.44 12.23Q12.56 12.46 12.61 12.72Q12.65 12.99 12.61 13.25Q12.57 13.52 12.45 13.75Q12.32 13.99 12.13 14.18Q11.94 14.36 11.7 14.48Q11.45 14.59 11.19 14.62Q10.92 14.65 10.66 14.6Q10.4 14.54 10.17 14.4Q9.94 14.27 9.76 14.06Q9.59 13.86 9.49 13.61Q9.39 13.37 9.37 13.1Q9.36 12.83 9.43 12.57Q9.5 12.32 9.64 12.09Q9.79 11.87 10 11.71Q10.22 11.54 10.47 11.46Q10.72 11.37 10.99 11.37Q11.26 11.37 11.51 11.45Q11.76 11.53 11.98 11.69Q12.19 11.86 12.34 12.08Q12.5 12.3 12.57 12.55Q12.64 12.81 12.64 12.81Q12.64 12.81 13.29 18.14Q13.94 23.48 14.26 27.91Q14.59 32.34 14.27 36.16Q13.94 39.98 13.76 43.07Q13.57 46.15 13.52 46.4Q13.47 46.64 13.36 46.86Q13.26 47.08 13.1 47.28Q12.94 47.47 12.74 47.61Q12.54 47.76 12.32 47.86Q12.09 47.95 11.84 47.99Q11.6 48.03 11.35 48.01Q11.11 47.99 10.87 47.91Q10.64 47.83 10.43 47.7Q10.22 47.57 10.05 47.39Q9.88 47.21 9.76 46.99Q9.63 46.78 9.57 46.54Q9.5 46.3 9.49 46.05Q9.48 45.81 9.48 45.81ZM29.46 25.93Q29.46 25.93 27.01 27.93Q24.57 29.93 21.88 32.43Q19.2 34.94 16.12 38.21Q13.03 41.48 12.81 41.65Q12.59 41.82 12.32 41.92Q12.05 42.01 11.77 42.01Q11.49 42.02 11.22 41.93Q10.95 41.84 10.73 41.67Q10.5 41.51 10.34 41.27Q10.18 41.04 10.1 40.77Q10.02 40.5 10.03 40.22Q10.04 39.94 10.15 39.67Q10.25 39.41 10.43 39.19Q10.61 38.98 10.85 38.83Q11.09 38.68 11.36 38.62Q11.64 38.55 11.92 38.58Q12.2 38.61 12.46 38.72Q12.71 38.84 12.92 39.03Q13.13 39.22 13.26 39.47Q13.4 39.72 13.45 39.99Q13.5 40.27 13.45 40.55Q13.41 40.83 13.28 41.08Q13.15 41.33 12.95 41.53Q12.75 41.72 12.49 41.85Q12.24 41.97 11.96 42Q11.68 42.03 11.4 41.98Q11.13 41.92 10.88 41.78Q10.64 41.63 10.45 41.42Q10.27 41.21 10.16 40.95Q10.05 40.69 10.03 40.41Q10.02 40.12 10.09 39.85Q10.16 39.58 10.32 39.34Q10.47 39.11 10.47 39.11Q10.47 39.11 13.56 35.7Q16.65 32.29 19.32 29.63Q22 26.96 24.33 24.82Q26.66 22.69 26.87 22.55Q27.09 22.41 27.33 22.32Q27.57 22.23 27.83 22.2Q28.09 22.17 28.34 22.21Q28.6 22.24 28.84 22.34Q29.08 22.43 29.29 22.58Q29.5 22.73 29.67 22.92Q29.84 23.12 29.95 23.35Q30.07 23.58 30.13 23.83Q30.19 24.08 30.19 24.34Q30.18 24.6 30.12 24.85Q30.05 25.1 29.93 25.33Q29.81 25.55 29.63 25.74Q29.46 25.93 29.46 25.93ZM20.69 32.04Q20.69 32.04 22.99 34.77Q25.3 37.5 28.68 41.09Q32.06 44.68 32.24 44.93Q32.41 45.18 32.5 45.48Q32.58 45.77 32.57 46.08Q32.56 46.38 32.45 46.67Q32.34 46.96 32.14 47.19Q31.95 47.43 31.69 47.59Q31.43 47.75 31.13 47.82Q30.83 47.89 30.53 47.86Q30.22 47.83 29.94 47.7Q29.66 47.58 29.44 47.37Q29.21 47.16 29.07 46.89Q28.92 46.63 28.87 46.32Q28.81 46.02 28.86 45.72Q28.91 45.42 29.05 45.15Q29.19 44.87 29.41 44.66Q29.62 44.45 29.9 44.32Q30.18 44.18 30.48 44.15Q30.78 44.11 31.08 44.17Q31.38 44.23 31.65 44.39Q31.91 44.54 32.11 44.77Q32.31 45.01 32.43 45.29Q32.55 45.57 32.57 45.88Q32.59 46.18 32.51 46.48Q32.43 46.77 32.26 47.03Q32.09 47.28 31.85 47.47Q31.61 47.66 31.32 47.76Q31.03 47.86 30.73 47.87Q30.42 47.87 30.13 47.78Q29.84 47.68 29.59 47.5Q29.35 47.32 29.35 47.32Q29.35 47.32 25.8 43.77Q22.25 40.22 19.8 37.63Q17.35 35.03 17.19 34.81Q17.04 34.59 16.94 34.33Q16.84 34.08 16.81 33.81Q16.78 33.54 16.81 33.28Q16.84 33.01 16.93 32.75Q17.03 32.5 17.18 32.28Q17.33 32.05 17.54 31.87Q17.74 31.69 17.98 31.57Q18.22 31.44 18.48 31.37Q18.74 31.31 19.01 31.31Q19.28 31.31 19.54 31.37Q19.81 31.43 20.05 31.56Q20.29 31.68 20.49 31.86Q20.69 32.04 20.69 32.04Z"/><g transform="translate(47 29.3) scale(0.6)"><path fill="none" stroke="rgba(23, 23, 26, 1)" stroke-width="2.2" stroke-linecap="round" stroke-linejoin="round" d="M-3 -11.5L-8 3M-3.5 13L-4 28.5l3.5 0M3.5 13L4 28.5l3.5 0M-5 -27Q-12.5 -22 -9 -9"/><path fill="#ffffff" stroke="rgba(23, 23, 26, 1)" stroke-width="2.2" stroke-linejoin="round" d="M0 -14L11.5 13L-11.5 13Z"/><circle cx="0.5" cy="-21.5" r="7.5" fill="#ffffff" stroke="rgba(23, 23, 26, 1)" stroke-width="2.2"/><circle cx="4" cy="-22.5" r="1" fill="rgba(23, 23, 26, 1)"/><path fill="none" stroke="rgba(23, 23, 26, 1)" stroke-width="3.19" d="M-6.63 -23.82A7.5 7.5 0 0 1 5.8 -26.8"/><path fill="none" stroke="rgba(23, 23, 26, 1)" stroke-width="2.2" stroke-linecap="round" stroke-linejoin="round" d="M3 -11.5L8 3"/></g></svg>
